<?xml version="1.0" encoding="UTF-8"?>
<svg xmlns="http://www.w3.org/2000/svg" xmlns:xlink="http://www.w3.org/1999/xlink" width="512" height="512" viewBox="0 0 60 43" version="1.1"><!-- Generator: Sketch 51.3 (57544) - http://www.bohemiancoding.com/sketch --><title>022 - Racing Flags</title><desc>Created with Sketch.</desc><defs/><g id="Page-1" stroke="none" stroke-width="1" fill="none" fill-rule="evenodd"><g id="022---Racing-Flags" fill-rule="nonzero"><path d="M57.92,15.09 L56.24,19.14 C55.48,20.98 54.71,22.83 53.95,24.68 L51.88,29.68 C51.7436267,30.0191891 51.4330314,30.2569287 51.07,30.3 C49.1768592,30.4609752 47.2824631,30.0049169 45.67,29 C44.5104137,28.2835104 43.4279949,27.4490761 42.44,26.51 C41.9,26.02 41.36,25.5 40.83,24.99 C39.9,24.09 38.96,23.18 37.98,22.39 C37.9525521,22.3605935 37.9224217,22.3338109 37.89,22.31 C37.2908875,21.8243226 36.6594298,21.3799634 36,20.98 C34.8715556,20.2877159 33.6052551,19.8508251 32.29,19.7 L31.92,18.81 L31.16,16.97 L32.31,14.21 C33.07,12.36 33.84,10.51 34.6,8.67 C35.36,6.83 36.14,4.97 36.9,3.12 C38.9797226,2.79167534 41.1079486,3.22869003 42.89,4.35 C43.6115115,4.78444074 44.2970399,5.2760148 44.94,5.82 C45.89,6.6 46.81,7.48 47.72,8.36 C48.25,8.87 48.79,9.39 49.33,9.88 C50.3179949,10.8190761 51.4004137,11.6535104 52.56,12.37 C53.8508144,13.1676606 55.3241349,13.6220492 56.84,13.69 C56.9096736,13.6983174 56.9798513,13.7016592 57.05,13.7 C57.3763178,13.7164274 57.6740312,13.8912329 57.8473774,14.1681883 C58.0207235,14.4451436 58.0478383,14.7893166 57.92,15.09 Z" id="Shape" fill="#A4C2F7"/><path d="M56.84,13.69 C56.8375704,13.8238165 56.8104489,13.9560336 56.76,14.08 L55.08,18.13 C54.32,19.97 53.55,21.82 52.79,23.67 L50.72,28.67 C50.5836267,29.0091891 50.2730314,29.2469287 49.91,29.29 C48.0168592,29.4509752 46.1224631,28.9949169 44.51,27.99 C43.7818762,27.5522921 43.0896964,27.0574003 42.44,26.51 C41.49,25.73 40.58,24.86 39.67,23.98 C39.11,23.44 38.55,22.9 37.98,22.39 C37.9525521,22.3605935 37.9224217,22.3338109 37.89,22.31 C36.9568181,21.4268263 35.934702,20.6426454 34.84,19.97 C33.939948,19.4196279 32.9523677,19.0273015 31.92,18.81 L31.16,16.97 L32.31,14.21 C33.07,12.36 33.84,10.51 34.6,8.67 C35.36,6.83 36.14,4.97 36.9,3.12 C38.9797226,2.79167534 41.1079486,3.22869003 42.89,4.35 C43.6115115,4.78444074 44.2970399,5.2760148 44.94,5.82 C45.48,6.31 46.02,6.83 46.56,7.35 C47.47,8.23 48.38,9.1 49.33,9.88 C49.9796964,10.4274003 50.6718762,10.9222921 51.4,11.36 C52.7524818,12.1931203 54.3019635,12.6520982 55.89,12.69 C56.425919,12.7095208 56.8479698,13.1537848 56.84,13.69 Z" id="Shape" fill="#F5F5F5"/><path d="M40.59,9.89 C39.83,11.74 39.0633333,13.59 38.29,15.44 C36.5116577,14.3186932 34.3865292,13.8815849 32.31,14.21 C33.07,12.36 33.84,10.51 34.6,8.67 C36.6785069,8.33871487 38.8066408,8.77215783 40.59,9.89 Z" id="Shape" fill="#7FACFA"/><path d="M47.72,8.36 C46.96,10.21 46.19,12.05 45.42,13.9 C43.9692176,12.3824119 42.3485484,11.0368874 40.59,9.89 C41.36,8.05 42.12,6.2 42.89,4.35 C44.6466546,5.49945351 46.2670436,6.84474542 47.72,8.36 Z" id="Shape" fill="#7FACFA"/><path d="M43.13,19.44 C42.36,21.29 41.6,23.14 40.83,24.99 C39.3792176,23.4724119 37.7585484,22.1268874 36,20.98 C36.76,19.13 37.53,17.28 38.29,15.44 C40.0519548,16.5825438 41.6760496,17.9247709 43.13,19.44 Z" id="Shape" fill="#7FACFA"/><path d="M50.26,17.91 C49.49,19.76 48.73,21.6 47.96,23.45 C46.2010552,22.3036502 44.5803269,20.9580766 43.13,19.44 C43.89,17.6 44.66,15.75 45.42,13.9 C46.876426,15.415475 48.500151,16.7607513 50.26,17.91 Z" id="Shape" fill="#7FACFA"/><path d="M56.73,13.68 L54.57,19.24 C53.0428003,19.1750555 51.5582312,18.7169402 50.26,17.91 L52.56,12.37 C53.8202147,13.1449343 55.2530275,13.5950505 56.73,13.68 Z" id="Shape" fill="#7FACFA"/><path d="M51.05,30.3 L51.81,29.79 C51.6638727,30.0728164 51.3863074,30.2641115 51.07,30.3 L51.05,30.3 Z" id="Shape" fill="#7FACFA"/><path d="M52.42,24.79 L50.26,30.34 C48.6361451,30.3221788 47.0483843,29.8586495 45.67,29 L47.96,23.45 C49.3007638,24.2859715 50.8405125,24.7485866 52.42,24.79 Z" id="Shape" fill="#7FACFA"/><path d="M37.79,3 C37.7909514,3.26501643 37.7364507,3.52730089 37.63,3.77 C36.96,5.4 36.28,7.04 35.6,8.67 C34.84,10.51 34.07,12.36 33.31,14.21 L32.16,16.97 L30,22.2 L22.33,40.72 C21.9075022,41.7417268 20.7367268,42.2274978 19.715,41.805 C18.6932732,41.3825022 18.2075022,40.2117268 18.63,39.19 L26.71,19.7 L26.71,19.69 L27.84,16.98 L27.84,16.97 L30,11.75 L33.94,2.24 C34.3029696,1.35637899 35.2401501,0.852797017 36.1773306,1.03779889 C37.1145111,1.22280076 37.7900314,2.04473405 37.79,3 Z" id="Shape" fill="#A4C2F7"/><path d="M29.99,19.75 C27.9102774,19.4216753 25.7820514,19.85869 24,20.98 C22.2414516,22.1268874 20.6207824,23.4724119 19.17,24.99 C17.713574,26.505475 16.089849,27.8507513 14.33,29 C12.7175369,30.0049169 10.8231408,30.4609752 8.93,30.3 C8.67222309,30.2696108 8.43773738,30.1361343 8.28,29.93 C8.21192074,29.8570797 8.15770151,29.7723621 8.12,29.68 L6.05,24.68 C5.29,22.83 4.52,20.98 3.76,19.14 L2.08,15.09 C1.95216167,14.7893166 1.97927647,14.4451436 2.15262263,14.1681883 C2.32596879,13.8912329 2.62368221,13.7164274 2.95,13.7 C4.53803648,13.6620982 6.08751821,13.2031203 7.44,12.37 C9.19984899,11.2207513 10.823574,9.87547497 12.28,8.36 C13.7329564,6.84474542 15.3533454,5.49945351 17.11,4.35 C17.7724194,3.95346743 18.4767111,3.63150552 19.21,3.39 C20.4688906,3.00334638 21.7997639,2.91097215 23.1,3.12 C23.86,4.97 24.6266667,6.82 25.4,8.67 C26.16,10.51 26.93,12.36 27.69,14.21 C28.45,16.06 29.22,17.9 29.99,19.75 Z" id="Shape" fill="#CAD9FC"/><path d="M25.99,19.75 C23.67,19.39 22.74,20.97 21,22 C19.26,23.03 17.54,25.51 16,27 C14.46,28.49 12.74,28.97 11,30 C10.35,30.38 9,29.7 8.28,29.93 C8.21192074,29.8570797 8.15770151,29.7723621 8.12,29.68 L6.05,24.68 C5.29,22.83 4.52,20.98 3.76,19.14 L2.08,15.09 C1.95216167,14.7893166 1.97927647,14.4451436 2.15262263,14.1681883 C2.32596879,13.8912329 2.62368221,13.7164274 2.95,13.7 C4.53803648,13.6620982 6.08751821,13.2031203 7.44,12.37 C9.19984899,11.2207513 10.823574,9.87547497 12.28,8.36 C13.7329564,6.84474542 15.3533454,5.49945351 17.11,4.35 C17.7724194,3.95346743 18.4767111,3.63150552 19.21,3.39 C19.93,5.15 20.67,6.91 21.4,8.67 C22.16,10.51 22.93,12.36 23.69,14.21 C24.45,16.06 25.22,17.9 25.99,19.75 Z" id="Shape" fill="#F5F5F5"/><path d="M21.46,8.96 L23.74,14.51 C23.0309531,14.7437962 22.3501028,15.0557129 21.71,15.44 C20.94,13.59 20.1733333,11.74 19.41,9.89 C20.0570641,9.50557534 20.7445537,9.19368981 21.46,8.96 Z" id="Shape" fill="#CAD9FC"/><path d="M27.69,14.21 C27.2761155,14.1480767 26.8584652,14.1146647 26.44,14.11 L24.23,8.56999108 C24.6221611,8.56936338 25.013635,8.60282269 25.4,8.67 C26.16,10.51 26.93,12.36 27.69,14.21 Z" id="Shape" fill="#CAD9FC"/><path d="M19.41,9.89 C17.6514516,11.0368874 16.0307824,12.3824119 14.58,13.9 C13.81,12.05 13.04,10.21 12.28,8.36 C13.7329564,6.84474542 15.3533454,5.49945351 17.11,4.35 C17.88,6.2 18.64,8.05 19.41,9.89 Z" id="Shape" fill="#CAD9FC"/><path d="M24,20.98 C22.2414516,22.1268874 20.6207824,23.4724119 19.17,24.99 C18.4,23.14 17.64,21.29 16.87,19.44 C18.3239504,17.9247709 19.9480452,16.5825438 21.71,15.44 C22.47,17.28 23.24,19.13 24,20.98 Z" id="Shape" fill="#CAD9FC"/><path d="M16.87,19.44 C15.4196731,20.9580766 13.7989448,22.3036502 12.04,23.45 C11.27,21.6 10.51,19.76 9.74,17.91 C11.499849,16.7607513 13.123574,15.415475 14.58,13.9 C15.34,15.75 16.11,17.6 16.87,19.44 Z" id="Shape" fill="#CAD9FC"/><path d="M9.74,17.91 C7.96127772,19.0303625 5.83650569,19.4673975 3.76,19.14 L2.08,15.09 C1.95216167,14.7893166 1.97927647,14.4451436 2.15262263,14.1681883 C2.32596879,13.8912329 2.62368221,13.7164274 2.95,13.7 C4.53803648,13.6620982 6.08751821,13.2031203 7.44,12.37 L9.74,17.91 Z" id="Shape" fill="#CAD9FC"/><path d="M14.33,29 C12.7175369,30.0049169 10.8231408,30.4609752 8.93,30.3 C8.56696859,30.2569287 8.25637333,30.0191891 8.12,29.68 L6.05,24.68 C8.12972263,25.0083247 10.2579486,24.57131 12.04,23.45 L14.33,29 Z" id="Shape" fill="#CAD9FC"/><path d="M40.29,41.8 C39.7994537,42.0052821 39.2473512,42.0067566 38.7557155,41.8040976 C38.2640798,41.6014386 37.873392,41.211333 37.67,40.72 L30,22.2 L28.99,19.75 L27.84,16.98 L27.84,16.97 L26.69,14.21 L24.4,8.67 L22.37,3.77 C22.2635493,3.52730089 22.2090486,3.26501643 22.21,3 C22.2099686,2.04473405 22.8854889,1.22280076 23.8226694,1.03779889 C24.7598499,0.852797017 25.6970304,1.35637899 26.06,2.24 L30,11.75 L32.16,16.97 L33.29,19.7 L41.37,39.19 C41.7908941,40.2089654 41.3078306,41.3763689 40.29,41.8 Z" id="Shape" fill="#E8EDFC"/><path d="M57.92,15.09 L56.24,19.14 C55.6878057,19.2266021 55.128583,19.2600885 54.57,19.24 L56.73,13.68 C56.8358113,13.6966157 56.9429433,13.7033114 57.05,13.7 C57.3763178,13.7164274 57.6740312,13.8912329 57.8473774,14.1681883 C58.0207235,14.4451436 58.0478383,14.7893166 57.92,15.09 Z" id="Shape" fill="#A4C2F7"/><path d="M53.95,24.68 L51.88,29.68 C51.8638939,29.7186602 51.8437843,29.7555279 51.82,29.79 L51.81,29.79 L51.05,30.3 C50.787617,30.3280345 50.5238728,30.3413886 50.26,30.34 L52.42,24.79 C52.9321958,24.7967618 53.4440392,24.7599626 53.95,24.68 Z" id="Shape" fill="#A4C2F7"/><path d="M50.26,30.34 C50.5238728,30.3413886 50.787617,30.3280345 51.05,30.3 L50,31 L50.26,30.34 Z" id="Shape" fill="#2C2F38"/><path d="M26.44,14.11 C25.5239855,14.0917458 24.6113764,14.2269472 23.74,14.51 L21.46,8.96 C22.3525126,8.66510228 23.2907585,8.53300268 24.23,8.57 L26.44,14.11 Z" id="Shape" fill="#CAD9FC"/><polygon id="Shape" fill="#FFFFFF" points="17.706 38.803 22.685 26.794 25.786 19.313 27.634 20.079 24.532 27.56 19.554 39.569"/><path d="M36.49,21.842 C38.1819579,22.9492523 39.741756,24.246344 41.139,25.708 C42.6468575,27.2770797 44.3298776,28.6678529 46.155,29.853 C47.6899324,30.8028229 49.4560246,31.3133501 51.261,31.329 C51.561,31.329 51.853,31.316 52.153,31.288 C52.8870676,31.2176699 53.5214798,30.745809 53.8,30.063 L55.871,25.063 L58.171,19.52 L59.849,15.469 C60.1048095,14.8498396 60.0370107,14.1441326 59.668,13.585 C59.3139074,13.0438855 58.714588,12.7135107 58.068,12.703 C56.6513213,12.6680594 55.2699651,12.2536525 54.068,11.503 C52.3764335,10.3956295 50.8169797,9.09854513 49.42,7.637 C47.9110174,6.06667447 46.2266437,4.67488517 44.4,3.489 C42.6746195,2.41716215 40.6582455,1.90931131 38.631,2.036 C38.3533669,1.2211727 37.7383375,0.56533565 36.943,0.236 C36.2085243,-0.07252848 35.3812735,-0.0750899778 34.6449013,0.228884172 C33.9085291,0.532858321 33.3239704,1.11821422 33.021,1.855 L30,9.133 L26.985,1.853 C26.5208785,0.731512891 25.4267306,0.000177405635 24.213,0.000177405635 C22.9992694,0.000177405635 21.9051215,0.731512891 21.441,1.853 C21.417,1.913 21.406,1.976 21.386,2.036 C19.3547156,1.90658159 17.333702,2.41454435 15.605,3.489 C13.7781778,4.67502636 12.0937831,6.06716852 10.585,7.638 C9.18789042,9.09824033 7.62843373,10.3939851 5.937,11.5 C4.73501453,12.2506076 3.35367094,12.6650106 1.937,12.7 C1.290412,12.7105107 0.691092634,13.0408855 0.337,13.582 C-0.0320106655,14.1411326 -0.099809485,14.8468396 0.156,15.466 L1.831,19.52 L4.131,25.063 L6.202,30.063 C6.4788567,30.7464789 7.11211197,31.2198796 7.846,31.292 C8.146,31.32 8.44333333,31.3336667 8.738,31.333 C10.542953,31.3171968 12.3090047,30.8066813 13.844,29.857 C15.6699173,28.6713383 17.3536164,27.2798875 18.862,25.71 C20.259244,24.248344 21.8190421,22.9512523 23.511,21.844 C23.9980596,21.555245 24.5101264,21.3109256 25.041,21.114 L22.3,27.718 C22.1540421,28.0496775 22.1989378,28.4343639 22.4173512,28.7235166 C22.6357646,29.0126692 22.9935159,29.1610382 23.3524629,29.1113323 C23.71141,29.0616264 24.0153808,28.8216241 24.147,28.484 L27.397,20.646 C27.693704,20.6392998 27.9905456,20.6499848 28.286,20.678 L28.915,22.197 L21.405,40.331 C21.1940272,40.8424157 20.6084157,41.0859728 20.097,40.875 C19.5855843,40.6640272 19.3420272,40.0784157 19.553,39.567 L21.084,35.874 C21.2955251,35.3636889 21.0533111,34.7785251 20.543,34.567 C20.0326889,34.3554749 19.4475251,34.5976889 19.236,35.108 L17.704,38.808 C17.0794127,40.3405783 17.8032692,42.0904926 19.328,42.734 C19.68828,42.8826636 20.0742532,42.9591107 20.464,42.959 C21.6836586,42.9582282 22.7836295,42.2253086 23.254,41.1 L30,24.81 L36.749,41.1 C37.051893,41.8363824 37.6366176,42.421107 38.373,42.724 C39.1088438,43.0314465 39.9371562,43.0314465 40.673,42.724 C42.2035141,42.0901101 42.9305444,40.3356571 42.297,38.805 L34.963,21.113 C35.4877504,21.3058926 35.9941176,21.5455218 36.476,21.829 C36.4804319,21.8335795 36.4851052,21.837919 36.49,21.842 Z M37.912,13.679 L37.712,13.609 C37.458,13.5216667 37.2023333,13.4463333 36.945,13.383 C36.889,13.368 36.832,13.353 36.775,13.34 C36.486,13.273 36.195,13.219 35.903,13.181 L35.837,13.17 C35.5101806,13.128501 35.1813801,13.1044669 34.852,13.098 L36.3,9.591 L36.349,9.585 C36.6543281,9.56009376 36.9608524,9.55308176 37.267,9.564 C37.321,9.564 37.375,9.572 37.429,9.575 C37.7033905,9.59227718 37.9765282,9.6256681 38.247,9.675 L38.368,9.694 C38.6681255,9.75357534 38.9643412,9.83138624 39.255,9.927 C39.316,9.947 39.377,9.97 39.438,9.992 C39.699,10.084 39.959,10.192 40.22,10.312 C40.252,10.327 40.284,10.339 40.32,10.354 L39.526,12.272 L38.792,14.045 C38.745,14.023 38.698,14.008 38.652,13.987 C38.405,13.871 38.159,13.769 37.912,13.679 Z M44.349,5.847 C45.4748668,6.69060837 46.5398416,7.61256177 47.536,8.606 L46.06,12.169 L46.005,12.119 C45.947,12.064 45.888,12.011 45.83,11.957 C45.5193333,11.667 45.2043333,11.383 44.885,11.105 C44.804,11.034 44.723,10.962 44.642,10.893 C44.2806667,10.5836667 43.912,10.2876667 43.536,10.005 C43.456,9.945 43.375,9.889 43.295,9.831 C43.142,9.72 42.995,9.605 42.836,9.5 L43.847,7.059 L44.349,5.847 Z M47.974,16.706 C48.052,16.773 48.128,16.842 48.206,16.906 C48.5686667,17.216 48.939,17.5133333 49.317,17.798 C49.395,17.857 49.475,17.912 49.554,17.969 C49.707,18.08 49.854,18.195 50.014,18.301 L49,20.743 L48.5,21.943 C48.45,21.907 48.4,21.877 48.348,21.843 C48.261,21.779 48.175,21.711 48.089,21.643 C47.805,21.4263333 47.5243333,21.2 47.247,20.964 C47.169,20.898 47.091,20.834 47.014,20.764 C46.676,20.47 46.339,20.165 46.003,19.849 C45.919,19.771 45.834,19.69 45.75,19.61 C45.604,19.472 45.457,19.33 45.31,19.19 L46.785,15.628 L46.841,15.68 C46.899,15.735 46.958,15.788 47.017,15.842 C47.3336667,16.1373333 47.6526667,16.4253333 47.974,16.706 Z M52.233,19.5 C52.513,19.616 52.794,19.719 53.076,19.807 C53.2,19.846 53.324,19.884 53.448,19.917 C53.748,19.998 54.048,20.061 54.348,20.111 C54.438,20.126 54.528,20.148 54.618,20.161 C54.9770158,20.2107459 55.3386326,20.2394615 55.701,20.247 L54.25,23.755 C54.233,23.755 54.216,23.76 54.199,23.761 C53.8997033,23.7862028 53.5991707,23.7935491 53.299,23.783 C53.233,23.783 53.167,23.774 53.099,23.77 C52.8408944,23.7539489 52.5838499,23.7239047 52.329,23.68 C52.278,23.671 52.229,23.665 52.175,23.655 C51.8790018,23.5962966 51.5868065,23.5198249 51.3,23.426 C51.236,23.405 51.172,23.381 51.108,23.358 C50.848,23.266 50.588,23.158 50.327,23.038 C50.297,23.023 50.266,23.011 50.235,22.996 L51.763,19.306 C51.812,19.329 51.863,19.344 51.909,19.366 C52.016,19.415 52.125,19.454 52.233,19.5 Z M43.018,24.74 L44.494,21.177 L44.549,21.228 L44.724,21.389 C45.0353333,21.679 45.3506667,21.9633333 45.67,22.242 C45.751,22.313 45.83,22.384 45.912,22.453 C46.2733333,22.7616667 46.6416667,23.0576667 47.017,23.341 C47.098,23.401 47.18,23.458 47.261,23.517 C47.413,23.627 47.561,23.741 47.718,23.846 L46.205,27.5 C45.0791,26.6560707 44.0141244,25.7337825 43.018,24.74 Z M42.581,16.64 L42.349,16.44 C41.986,16.13 41.616,15.831 41.237,15.547 C41.16,15.489 41.082,15.435 41.004,15.379 C40.85,15.267 40.698,15.15 40.54,15.044 L42.049,11.4 C42.099,11.436 42.149,11.465 42.202,11.5 C42.288,11.563 42.373,11.631 42.458,11.7 C42.742,11.916 43.0226667,12.1423333 43.3,12.379 C43.379,12.446 43.458,12.511 43.537,12.579 C43.8703333,12.871 44.2036667,13.1733333 44.537,13.486 C44.632,13.574 44.726,13.665 44.821,13.754 C44.959,13.885 45.098,14.019 45.237,14.154 L44.56,15.787 L43.76,17.714 L43.688,17.648 L43.553,17.524 C43.2356667,17.2226667 42.9116667,16.9283333 42.581,16.641 L42.581,16.64 Z M39.752,16.94 C39.796,16.971 39.841,16.996 39.884,17.028 C39.998,17.112 40.111,17.201 40.225,17.289 C40.463,17.473 40.6996667,17.6636667 40.935,17.861 C41.053,17.961 41.172,18.061 41.289,18.161 C41.604,18.437 41.917,18.72 42.231,19.013 C42.342,19.113 42.451,19.221 42.561,19.326 C42.688,19.446 42.816,19.568 42.943,19.69 L41.468,23.251 C40.4663837,22.2763049 39.388266,21.3834469 38.244,20.581 L39.752,16.94 Z M51.948,29.3 C50.5662816,29.4280738 49.1763914,29.1650654 47.937,28.541 L48.672,26.766 L49.472,24.846 C49.519,24.868 49.567,24.883 49.614,24.904 C49.726,24.955 49.839,24.997 49.952,25.043 C50.227,25.156 50.503,25.258 50.781,25.343 C50.907,25.382 51.034,25.421 51.161,25.455 C51.461,25.535 51.756,25.598 52.061,25.648 C52.153,25.663 52.244,25.686 52.336,25.698 C52.69396,25.7482042 53.0546058,25.7769223 53.416,25.784 L51.948,29.3 Z M56.548,18.208 L56.492,18.215 C56.1960001,18.2394142 55.898822,18.2464263 55.602,18.236 C55.528,18.236 55.455,18.226 55.381,18.222 C55.1336903,18.2054639 54.8873755,18.1764268 54.643,18.135 C54.583,18.125 54.523,18.119 54.464,18.107 C54.1727695,18.0488191 53.885261,17.9733523 53.603,17.881 C53.534,17.858 53.464,17.832 53.395,17.807 C53.144,17.718 52.895,17.616 52.642,17.499 C52.605,17.482 52.569,17.468 52.532,17.45 L53.6,14.879 L54.062,13.764 C55.2915598,14.3570346 56.6351011,14.676373 58,14.7 L56.548,18.208 Z M52.259,12.884 L50.8,16.4 C50.751,16.365 50.7,16.335 50.649,16.3 C50.561,16.236 50.475,16.167 50.388,16.1 C50.1066667,15.8853333 49.8286667,15.661 49.554,15.427 C49.473,15.358 49.391,15.291 49.31,15.221 C48.9766667,14.931 48.6433333,14.631 48.31,14.321 C48.21,14.226 48.11,14.127 48.003,14.03 C47.872,13.906 47.739,13.779 47.603,13.652 L49.078,10.091 C50.0798735,11.0654087 51.1579675,11.958247 52.302,12.761 L52.259,12.884 Z M42.617,4.8 L41.842,6.672 L41.087,8.5 C41.012,8.465 40.936,8.44 40.86,8.407 C40.66,8.321 40.47,8.239 40.274,8.166 C40.156,8.122 40.037,8.082 39.919,8.043 C39.731,7.981 39.543,7.926 39.355,7.876 C39.235,7.844 39.116,7.812 38.996,7.786 C38.796,7.741 38.596,7.707 38.396,7.676 C38.289,7.66 38.182,7.639 38.075,7.626 C37.775,7.59 37.468,7.567 37.162,7.561 L37.147,7.561 L38.6,4.043 C39.9834484,3.91462988 41.3751659,4.1768978 42.617,4.8 Z M34.865,2.614 C35.0468988,2.17112038 35.5171896,1.91930873 35.9866243,2.01343953 C36.456059,2.10757033 36.79291,2.52122962 36.79,3 C36.7907161,3.13359881 36.7620386,3.26572002 36.706,3.387 L32.161,14.35 L31.083,11.75 L34.865,2.614 Z M24.207,13.167 C24.122,13.177 24.039,13.194 23.955,13.207 C23.73,13.24 23.505,13.279 23.282,13.329 C23.177,13.353 23.073,13.381 22.969,13.408 C22.765,13.4606667 22.5613333,13.521 22.358,13.589 C22.25,13.624 22.143,13.661 22.036,13.701 C21.83,13.777 21.625,13.863 21.42,13.954 C21.35,13.985 21.279,14.007 21.209,14.04 L20.475,12.267 L19.681,10.349 C19.712,10.334 19.743,10.322 19.774,10.307 C20.0366667,10.1843333 20.2993333,10.077 20.562,9.985 C20.621,9.964 20.68,9.942 20.738,9.923 C21.0305337,9.82658286 21.3287748,9.74843234 21.631,9.689 C21.67,9.681 21.71,9.677 21.749,9.67 C22.0185386,9.62116016 22.2906494,9.58777233 22.564,9.57 C22.62,9.57 22.677,9.561 22.734,9.559 C23.0381452,9.54758426 23.3427026,9.5545971 23.646,9.58 C23.662,9.58 23.679,9.58 23.696,9.586 L25.149,13.1 C24.831,13.106 24.518,13.13 24.207,13.167 Z M18.763,15.546 C18.384,15.83 18.014,16.129 17.651,16.439 L17.419,16.639 C17.0856667,16.927 16.7603333,17.2206667 16.443,17.52 L16.308,17.644 L16.236,17.71 L15.436,15.783 L14.759,14.15 C14.898,14.017 15.037,13.883 15.175,13.75 C15.275,13.661 15.364,13.57 15.459,13.482 C15.7923333,13.1686667 16.1256667,12.8663333 16.459,12.575 C16.538,12.507 16.617,12.442 16.696,12.375 C16.974,12.1376667 17.2546667,11.9113333 17.538,11.696 C17.623,11.631 17.708,11.563 17.794,11.496 C17.844,11.459 17.894,11.43 17.947,11.396 L19.456,15.037 C19.298,15.143 19.146,15.26 18.992,15.372 C18.918,15.434 18.84,15.488 18.763,15.546 Z M13.8,27.5 L12.287,23.847 C12.442,23.742 12.587,23.628 12.744,23.518 C12.825,23.459 12.907,23.402 12.988,23.342 C13.364,23.0586667 13.7306667,22.7626667 14.088,22.454 C14.17,22.385 14.249,22.314 14.33,22.243 C14.65,21.9643333 14.9653333,21.68 15.276,21.39 L15.451,21.229 L15.506,21.178 L16.982,24.741 C15.9873733,25.7341779 14.9240797,26.6561224 13.8,27.5 Z M8.9,23.355 C8.832,23.379 8.764,23.404 8.7,23.427 C8.41572747,23.5196914 8.12622211,23.5954904 7.833,23.654 C7.779,23.665 7.725,23.671 7.67,23.68 C7.41783412,23.7236858 7.16344599,23.7533978 6.908,23.769 C6.841,23.774 6.774,23.78 6.708,23.782 C6.40785236,23.7933461 6.10729179,23.7863331 5.808,23.761 L5.757,23.755 L4.3,20.246 C4.6623674,20.2384615 5.02398425,20.2097459 5.383,20.16 C5.473,20.147 5.563,20.125 5.653,20.11 C5.953,20.06 6.253,19.997 6.553,19.916 C6.677,19.883 6.801,19.845 6.925,19.806 C7.207,19.718 7.488,19.615 7.768,19.499 C7.876,19.454 7.985,19.415 8.092,19.366 C8.141,19.344 8.192,19.329 8.238,19.306 L9.2,21.63 L9.765,23 C9.731,23.017 9.696,23.03 9.665,23.047 C9.409,23.1623333 9.154,23.265 8.9,23.355 Z M10.682,17.8 C11.061,17.516 11.431,17.217 11.794,16.907 L12.026,16.707 C12.35,16.423 12.6703333,16.134 12.987,15.84 C13.041,15.79 13.095,15.74 13.148,15.692 C13.168,15.672 13.189,15.654 13.21,15.634 L14.685,19.2 C14.54,19.338 14.395,19.478 14.251,19.614 L13.991,19.861 C13.6543333,20.1756667 13.3176667,20.48 12.981,20.774 C12.904,20.841 12.826,20.905 12.748,20.974 C12.47,21.21 12.1896667,21.436 11.907,21.652 C11.82,21.718 11.734,21.787 11.646,21.852 C11.597,21.889 11.546,21.918 11.495,21.952 L10.995,20.752 L9.986,18.3 C10.143,18.194 10.294,18.079 10.447,17.967 C10.525,17.914 10.605,17.859 10.682,17.8 Z M15.651,5.846 L16.151,7.058 L17.164,9.5 C17.008,9.605 16.858,9.72 16.705,9.831 C16.625,9.889 16.544,9.945 16.464,10.005 C16.088,10.287 15.7193333,10.583 15.358,10.893 C15.277,10.962 15.196,11.034 15.115,11.105 C14.7956667,11.383 14.4806667,11.667 14.17,11.957 C14.112,12.011 14.053,12.064 13.995,12.119 L13.94,12.169 L12.464,8.606 C13.4601946,7.61260068 14.5251665,6.69064973 15.651,5.847 L15.651,5.846 Z M21.398,4.046 L22.854,7.56 C22.5420771,7.56675625 22.2306877,7.58911754 21.921,7.627 C21.828,7.638 21.736,7.656 21.643,7.67 C21.428,7.703 21.213,7.74 20.999,7.787 C20.887,7.813 20.776,7.842 20.664,7.872 C20.468,7.92266667 20.2723333,7.98033333 20.077,8.045 C19.964,8.083 19.85,8.121 19.737,8.164 C19.537,8.238 19.337,8.322 19.137,8.411 C19.065,8.443 18.992,8.466 18.92,8.5 L18.165,6.678 L17.383,4.8 C18.6247821,4.17674404 20.016544,3.91446777 21.4,4.043 L21.398,4.046 Z M10.914,10.09 L12.389,13.651 C12.25,13.784 12.111,13.918 11.973,14.051 C11.873,14.142 11.782,14.234 11.687,14.323 C11.354,14.633 11.023,14.934 10.687,15.223 C10.605,15.294 10.522,15.362 10.44,15.432 C10.166,15.6646667 9.889,15.888 9.609,16.102 C9.522,16.169 9.435,16.238 9.347,16.302 C9.297,16.338 9.247,16.368 9.196,16.402 L7.743,12.887 L7.69,12.76 C8.83407391,11.9573013 9.91217208,11.0644594 10.914,10.09 Z M5.941,13.763 L7.469,17.453 C7.432,17.471 7.394,17.486 7.356,17.504 C7.107,17.62 6.856,17.721 6.609,17.804 C6.538,17.829 6.468,17.856 6.397,17.879 C6.11374211,17.971685 5.82523535,18.0474848 5.533,18.106 C5.478,18.116 5.423,18.122 5.368,18.132 C5.11442876,18.1752515 4.85873292,18.2049603 4.602,18.221 C4.537,18.221 4.472,18.231 4.402,18.233 C4.10184908,18.2438651 3.80131751,18.2368527 3.502,18.212 C3.483,18.212 3.464,18.212 3.445,18.206 L1.959,14.7 C3.33870302,14.6811511 4.6976647,14.3613753 5.941,13.763 Z M8.026,29.3 L8.046,29.3 L6.593,25.789 C6.95439417,25.7819223 7.31503997,25.7532042 7.673,25.703 C7.766,25.691 7.858,25.668 7.951,25.653 C8.251,25.603 8.551,25.54 8.844,25.46 C8.971,25.426 9.098,25.388 9.224,25.348 C9.502,25.261 9.778,25.159 10.054,25.048 C10.166,25.002 10.279,24.96 10.391,24.909 C10.438,24.888 10.491,24.873 10.533,24.851 L11.333,26.771 L12.068,28.546 C10.8183156,29.1722447 9.41742114,29.4335694 8.026,29.3 Z M18.532,23.255 L17.057,19.7 C17.184,19.578 17.312,19.456 17.439,19.336 C17.549,19.231 17.658,19.127 17.769,19.023 C18.083,18.73 18.396,18.447 18.711,18.171 C18.828,18.071 18.947,17.971 19.065,17.871 C19.2996667,17.671 19.5363333,17.4803333 19.775,17.299 C19.889,17.211 20.002,17.122 20.116,17.038 C20.159,17.006 20.204,16.981 20.248,16.95 L20.899,18.523 L21.756,20.591 C20.6119193,21.3918509 19.5338069,22.2830325 18.532,23.256 L18.532,23.255 Z M23.505,19.582 L23.114,18.638 L21.977,15.892 C22.009,15.876 22.041,15.864 22.077,15.848 C22.334,15.728 22.591,15.624 22.847,15.533 C22.914,15.509 22.982,15.483 23.047,15.462 C23.3301037,15.3685283 23.6186379,15.2923874 23.911,15.234 C23.968,15.223 24.027,15.217 24.085,15.207 C24.3315745,15.1645296 24.5802744,15.1354868 24.83,15.12 C24.902,15.12 24.974,15.108 25.046,15.106 C25.3441547,15.0955846 25.6426632,15.1025965 25.94,15.127 L25.994,15.133 L27.448,18.643 C26.0816168,18.6711325 24.7371156,18.9916578 23.505,19.583 L23.505,19.582 Z M40.444,40.338 C40.3435887,40.5832898 40.1491036,40.778135 39.904,40.879 C39.3939651,41.0899975 38.8094267,40.8478572 38.598,40.338 L30.924,21.815 L29,17.163 L28.771,16.609 C28.763,16.589 28.756,16.57 28.747,16.551 L27.618,13.826 L26.825,11.911 L23.29,3.383 C23.0975709,2.87739205 23.3421264,2.31042709 23.8419394,2.10341193 C24.3417525,1.89639677 24.9155731,2.1244025 25.137,2.618 L29.076,12.126 L31.232,17.326 L31.242,17.349 L40.442,39.564 C40.5476728,39.8110386 40.5483947,40.0904186 40.444,40.338 Z M33.244,16.965 L34.007,15.134 L34.084,15.125 C34.3704031,15.1022572 34.6578725,15.0959135 34.945,15.106 C35.03,15.106 35.114,15.116 35.198,15.122 C35.425,15.137 35.65,15.164 35.873,15.201 C35.954,15.214 36.035,15.223 36.116,15.239 C36.3863265,15.2946427 36.6533949,15.365082 36.916,15.45 C37.016,15.482 37.116,15.519 37.216,15.556 C37.43,15.634 37.643,15.721 37.857,15.819 C37.911,15.844 37.965,15.866 38.019,15.892 C37.6623333,16.7586667 37.3046667,17.6236667 36.946,18.487 L36.5,19.58 C35.7061463,19.2052444 34.8651565,18.939828 34,18.791 L33.244,16.965 Z" id="Shape" fill="#428DFF"/><path d="M20.99,32.5 C21.0315725,32.5482583 21.0801057,32.5900508 21.134,32.624 C21.1907788,32.6596415 21.2499152,32.6913814 21.311,32.719 C21.5574628,32.816018 21.8315372,32.816018 22.078,32.719 C22.1979172,32.6653206 22.3065175,32.5893004 22.398,32.495 C22.5915157,32.3119733 22.7011584,32.057359 22.7011584,31.791 C22.7011584,31.524641 22.5915157,31.2700267 22.398,31.087 C22.3068348,30.9933413 22.1980933,30.9185815 22.078,30.867 C21.7035235,30.7089787 21.2706559,30.7933378 20.9829217,31.0804135 C20.6951876,31.3674892 20.609837,31.8001624 20.767,32.175 L20.859,32.343 C20.8960862,32.4004905 20.940081,32.4532172 20.99,32.5 Z" id="Shape" fill="#428DFF"/></g></g></svg>
